<?xml version="1.0" standalone="no"?>
<!DOCTYPE svg PUBLIC "-//W3C//DTD SVG 20010904//EN"
 "http://www.w3.org/TR/2001/REC-SVG-20010904/DTD/svg10.dtd">
<svg version="1.0" xmlns="http://www.w3.org/2000/svg"
 width="250.000000pt" height="229.000000pt" viewBox="0 0 250.000000 229.000000"
 preserveAspectRatio="xMidYMid meet">

<g transform="translate(0.000000,229.000000) scale(0.100000,-0.100000)"
fill="#000000" stroke="none">
<path d="M0 1145 l0 -1145 1250 0 1250 0 0 1145 0 1145 -1250 0 -1250 0 0
-1145z m240 58 l0 -57 58 57 c57 57 60 58 108 55 47 -3 49 -5 79 -55 16 -29
32 -53 35 -53 3 0 19 24 35 53 24 40 37 53 58 55 15 2 27 0 27 -4 0 -3 -20
-40 -45 -81 -37 -61 -45 -82 -45 -123 0 -49 -1 -50 -30 -50 -29 0 -30 1 -30
48 0 38 -9 61 -43 116 -23 38 -46 68 -50 67 -4 -1 -25 -21 -47 -45 l-40 -43
56 -71 55 -72 -34 0 c-30 0 -40 7 -73 50 -21 28 -41 50 -44 50 -16 0 -30 -28
-30 -62 0 -36 -2 -38 -30 -38 l-30 0 0 130 0 130 30 0 c30 0 30 0 30 -57z
m609 36 c32 -19 32 -21 16 -39 -16 -17 -20 -18 -38 -5 -32 22 -75 18 -102 -10
-68 -67 23 -175 102 -120 18 13 22 12 38 -5 16 -18 16 -20 -16 -39 -87 -53
-209 11 -209 109 0 98 122 162 209 109z m261 11 c0 -6 -33 -10 -80 -10 l-80 0
0 -50 0 -50 70 0 c40 0 70 -4 70 -10 0 -6 -30 -10 -70 -10 l-70 0 0 -50 0 -50
80 0 c47 0 80 -4 80 -10 0 -6 -35 -10 -85 -10 l-85 0 0 130 0 130 85 0 c50 0
85 -4 85 -10z m170 -100 l85 -110 3 110 c4 157 22 140 22 -20 0 -71 -4 -130
-9 -130 -4 0 -46 50 -92 110 l-84 111 -3 -111 c-4 -157 -22 -140 -22 20 0 72
4 130 8 130 4 0 46 -49 92 -110z m371 95 c16 -9 27 -20 24 -26 -4 -5 -15 -3
-28 6 -12 8 -41 15 -65 15 -70 0 -125 -69 -108 -136 4 -15 20 -39 36 -55 22
-23 38 -29 70 -29 64 0 80 13 80 65 0 25 5 45 10 45 6 0 10 -22 10 -50 0 -45
-3 -51 -32 -66 -38 -19 -102 -15 -141 10 -14 10 -34 38 -43 62 -16 43 -16 47
2 91 31 74 114 104 185 68z m129 -115 c0 -80 -4 -130 -10 -130 -6 0 -10 50
-10 130 0 80 4 130 10 130 6 0 10 -50 10 -130z m190 18 l85 -111 6 114 5 114
2 -132 c1 -73 0 -133 -2 -133 -3 0 -42 48 -88 106 l-83 107 -3 -107 c-4 -153
-22 -134 -22 24 0 72 3 130 8 129 4 0 45 -50 92 -111z m360 102 c0 -6 -32 -10
-75 -10 l-75 0 0 -50 0 -50 70 0 c40 0 70 -4 70 -10 0 -6 -30 -10 -70 -10
l-70 0 0 -50 0 -50 80 0 c47 0 80 -4 80 -10 0 -6 -37 -10 -90 -10 l-90 0 0
130 0 130 85 0 c50 0 85 -4 85 -10z"/>
</g>
</svg>
